<?xml version="1.0" standalone="no"?>
<!DOCTYPE svg PUBLIC "-//W3C//DTD SVG 20010904//EN"
 "http://www.w3.org/TR/2001/REC-SVG-20010904/DTD/svg10.dtd">
<svg version="1.0" xmlns="http://www.w3.org/2000/svg"
 width="512.000000pt" height="512.000000pt" viewBox="0 0 512.000000 512.000000"
 preserveAspectRatio="xMidYMid meet">

<g transform="translate(0.000000,512.000000) scale(0.100000,-0.100000)"
fill="#000000" stroke="none">
<path d="M2331 5110 c-498 -48 -971 -238 -1364 -547 -107 -83 -362 -344 -444
-453 -485 -649 -641 -1458 -428 -2233 137 -500 432 -954 840 -1292 771 -638
1860 -764 2754 -319 259 129 438 254 639 449 227 218 386 436 522 710 160 324
236 605 262 972 39 542 -114 1118 -418 1573 -407 609 -1041 1014 -1757 1121
-153 23 -464 32 -606 19z m579 -259 c747 -117 1385 -583 1723 -1257 330 -660
326 -1434 -13 -2091 -348 -674 -984 -1128 -1735 -1238 -359 -52 -745 -13
-1100 111 -135 47 -378 169 -498 249 -996 664 -1330 1944 -784 3000 364 702
1055 1167 1857 1245 128 13 408 3 550 -19z"/>
<path d="M1707 3836 c-61 -22 -129 -81 -158 -139 -37 -72 -40 -159 -37 -1217
l3 -1025 30 -60 c42 -84 93 -118 185 -123 86 -5 128 9 179 59 78 79 75 38 81
908 l5 773 335 -513 c733 -1127 742 -1140 842 -1194 44 -24 68 -30 141 -33 94
-5 150 9 202 50 37 29 73 107 85 185 7 45 10 417 8 1113 l-3 1045 -23 50 c-44
96 -104 134 -210 135 -75 0 -126 -23 -169 -75 -59 -71 -57 -43 -63 -901 l-5
-791 -340 514 c-187 283 -429 651 -538 816 -108 166 -213 321 -232 343 -51 62
-123 94 -209 94 -39 -1 -88 -7 -109 -14z"/>
</g>
</svg>
